<svg preserveAspectRatio="none" overflow="visible" style="display: block;" width="392" height="900" viewBox="0 0 392 900" fill="none" xmlns="http://www.w3.org/2000/svg">
<g id="&#230;&#139;&#177;&#233;&#161;&#182;&#229;&#164;&#150;&#230;&#161;&#134; &#194;&#183; &#229;&#143;&#175;&#231;&#188;&#150;&#232;&#190;&#145;&#231;&#159;&#162;&#233;&#135;&#143;">
<g id="SVG">
<path id="Vector" d="M10.0513 158.886V864.81L23.1179 878.673H368.882L381.949 864.81V158.886L368.882 145.024H316.615C316.615 117.873 303.908 91.8354 281.288 72.6375C258.668 53.4394 227.989 42.654 196 42.654C164.011 42.654 133.332 53.4394 110.712 72.6375C88.0922 91.8354 75.3846 117.873 75.3846 145.024H23.1179L10.0513 158.886Z" stroke="#D9A054"/>
<path id="Vector_2" d="M13.0667 160.166V863.531L24.3241 875.474H367.676L378.933 863.531V160.166L367.676 148.223H313.6C313.6 121.072 301.21 95.0345 279.156 75.8365C257.102 56.6385 227.189 45.8531 196 45.8531C164.811 45.8531 134.898 56.6385 112.845 75.8365C90.79 95.0345 78.4 121.072 78.4 148.223H24.3241L13.0667 160.166Z" stroke="#D9A054"/>
</g>
<path id="Vector_3" d="M72 124.122H55.2056V140M71.4906 139.421V118L65.5529 120.895L71.4906 139.421ZM71.9695 140H50L52.9689 134.211L71.9695 140Z" stroke="#D9A054"/>
<path id="Vector_4" d="M320 124.122H336.794V140M320.509 139.421V118L326.447 120.895L320.509 139.421ZM320.03 140H342L339.031 134.211L320.03 140Z" stroke="#D9A054"/>
</g>
</svg>
